<?xml version="1.0" encoding="UTF-8" standalone="no"?>
<!-- Created with Inkscape (http://www.inkscape.org/) -->

<svg
   width="502.4498762mm"
   height="538.1301463mm"
   viewBox="0 0 198.99005 213.12085"
   version="1.1"
   id="svg5"
   xml:space="preserve"
   xmlns="http://www.w3.org/2000/svg"
   xmlns:svg="http://www.w3.org/2000/svg"><defs
     id="defs2"><clipPath
       clipPathUnits="userSpaceOnUse"
       id="clipPath1876"><rect
         style="fill:#ffffff;stroke:#ffffff;stroke-width:0.264999;stroke-linecap:round;paint-order:fill markers stroke"
         id="rect1878"
         width="62.333332"
         height="67.692307"
         x="-127.6822"
         y="244.21536" /></clipPath></defs><g
     id="layer1"
     style="display:inline"
     transform="translate(5.5025513e-4)"><rect
       style="fill:#000000;stroke:#ffffff;stroke-width:0.264999;stroke-linecap:round;paint-order:fill markers stroke"
       id="rect354"
       width="179.36232"
       height="212.85583"
       x="0.13194925"
       y="0.1324995" /><path
       style="fill:#ffffff;stroke-width:1.0015"
       d="m -107.09094,311.09347 c 0.80376,-1.65438 1.52658,-1.95435 3.3354,-1.38417 0.77251,0.24352 1.93955,0.5427 2.59342,0.66486 1.14923,0.2147 1.184948,0.20163 1.07147,-0.392 -0.0915,-0.47896 0.0418,-0.67464 0.606178,-0.88919 0.51877,-0.19724 0.82678,-0.18944 1.08825,0.0276 0.27511,0.22833 0.36469,0.22535 0.36469,-0.0121 0,-0.36113 1.08619,-0.1058 1.35948,0.31957 0.0929,0.14455 0.30123,0.18101 0.46302,0.081 0.16179,-0.1 0.29417,-0.0557 0.29417,0.0984 0,0.15411 -0.11906,0.2802 -0.26459,0.2802 -0.14552,0 -0.26458,0.1786 -0.26458,0.39688 0,0.47855 -0.95897,0.53382 -1.14769,0.0661 -0.10676,-0.26458 -0.13763,-0.26458 -0.15434,0 -0.0115,0.1819 -0.28878,0.34862 -0.6162,0.37047 -0.32742,0.0219 -0.0595,0.11115 0.59531,0.19844 0.65485,0.0873 1.25016,0.0992 1.32292,0.0264 0.14924,-0.14924 3.451404,-1.05665 4.562382,-1.25372 0.564655,-0.10016 0.895508,0.0528 1.489297,0.68844 23.10437,31.28154 -37.890717,44.49986 -16.698587,0.71282 z m 14.069661,0.11702 c -0.264634,0 -0.538816,0.0933 -0.609294,0.20733 -0.05622,3.83865 0.815681,-0.19488 0.609294,-0.20733 z m -10.566451,0.13233 c 0.40554,0.12871 0.53762,0.0956 0.41429,-0.10398 -0.23922,-0.38707 -1.02171,-0.37353 -1.41981,0.0246 1.73176,3.49704 0.82168,0.0238 1.00552,0.0794 z m 12.203565,-0.20288 c -0.261308,-0.25937 -0.291698,-0.22898 -0.148113,0.14811 0.282305,0.60728 0.451051,0.16101 0.148113,-0.14811 z m -9.364905,-0.0893 c -0.0879,-0.0879 -0.31612,-0.0973 -0.50712,-0.0209 -0.21106,0.0845 -0.14837,0.14716 0.15986,0.15985 0.27891,0.0115 0.43518,-0.051 0.34726,-0.13896 z m -7.09677,0.0425 c -14.94318,-47.29334 -7.47159,-23.64667 0,0 z m 21.721772,-0.5429 c -0.180464,-0.21744 -0.271084,-0.69369 -0.20138,-1.05833 0.113186,-0.59209 0.03871,-0.66341 -0.696468,-0.66703 -0.452763,-0.002 -0.98375,-0.10579 -1.179967,-0.23014 -0.541012,-0.34286 -0.250428,-1.20913 0.438504,-1.30725 0.674532,-0.0961 1.926887,-1.6754 2.681777,-3.38196 1.034746,-2.33921 1.696797,-6.72957 1.072939,-7.11514 -0.507585,-0.3137 -0.291905,-1.41088 0.315227,-1.60357 0.435745,-0.1383 0.727075,-0.0128 1.172517,0.50504 0.557837,0.64852 0.636188,0.66651 1.331698,0.30567 0.622866,-0.32315 0.823203,-0.32748 1.274879,-0.0276 0.773774,0.51377 0.69075,1.53284 -0.158025,1.93964 -0.669997,0.32112 -0.6955,0.41776 -0.739981,2.80397 -0.07364,3.95037 -0.972611,6.41084 -2.719293,7.44263 -0.83598,0.49382 -1.375563,1.34094 -1.179531,1.8518 0.149254,0.38895 -0.303207,0.93761 -0.773221,0.93761 -0.171357,0 -0.459211,-0.17791 -0.639675,-0.39536 z m 2.764234,-4.03641 c 1.822593,-2.90591 2.600754,-7.21879 1.533983,-8.50198 -0.761616,-0.91613 -1.150813,-0.33216 -1.411039,2.11719 -0.194672,1.83234 -0.443992,2.63129 -1.435118,4.59885 -1.429642,2.8381 -1.48857,3.30729 -0.415383,3.30729 0.654458,0 0.92006,-0.2339 1.727557,-1.52135 z m 0.901491,-0.36937 c 0.548873,-0.96089 1.267185,-2.86706 0.967463,-2.56734 -0.264795,0.26479 -1.885188,3.66412 -1.745737,3.66227 0.0847,-0.001 0.434922,-0.49384 0.778274,-1.09493 z m 1.0502,-8.66685 c -0.345598,-0.55339 -1.542187,-0.78511 -1.542187,-0.29865 0,0.14095 0.171262,0.19056 0.380582,0.11024 0.209317,-0.0803 0.589915,0.0984 0.845767,0.39725 0.577678,0.67468 0.78287,0.539 0.315838,-0.20884 z m -30.381767,12.26844 c 0,-0.77705 -0.1473,-1.02187 -0.87206,-1.44949 -1.97859,-1.1674 -2.80856,-3.17664 -3.02117,-7.31386 -0.14253,-2.77325 -0.18932,-2.9686 -0.77506,-3.23548 -0.68124,-0.31039 -0.8451,-1.29073 -0.30588,-1.82996 0.43889,-0.43889 1.4032,-0.39773 1.79695,0.0767 0.28363,0.34175 0.39609,0.30655 0.84534,-0.26458 1.00991,-1.28389 2.17051,-0.598 1.54469,0.91288 -0.23908,0.57719 -0.24824,1.21797 -0.0368,2.57494 0.6287,4.03479 2.07602,7.01378 3.80255,7.82674 1.10132,0.51857 1.19336,0.75026 0.55259,1.39103 -0.3188,0.3188 -0.68264,0.39161 -1.34039,0.26821 -0.84847,-0.15917 -0.88528,-0.1366 -0.61144,0.37507 0.40594,0.7585 -0.0825,1.60276 -0.92718,1.60276 -0.57011,0 -0.65215,-0.11761 -0.65215,-0.93496 z m 1.05833,-2.40921 c 0,-0.38409 -0.37105,-1.30137 -0.82455,-2.03841 -1.12178,-1.82313 -1.47063,-2.91198 -1.69291,-5.28406 -0.20829,-2.2227 -0.70349,-3.05214 -1.31938,-2.20987 -0.51753,0.70776 -0.71312,2.60011 -0.40901,3.95713 0.14982,0.6685 0.20187,1.39925 0.11567,1.62388 -0.16799,0.43775 1.39305,4.03542 1.64266,3.7858 0.082,-0.082 0.0137,-0.42723 -0.15181,-0.76711 -0.29186,-0.59928 -0.28407,-0.59797 0.25734,0.0435 0.30707,0.3638 0.72934,0.86982 0.93839,1.12448 0.60422,0.73606 1.4436,0.59923 1.4436,-0.23532 z m -3.80377,-3.14835 c -0.25532,-0.66534 -0.18,-0.83702 0.1319,-0.30065 0.15444,0.26557 0.22506,0.5386 0.15693,0.60672 -0.0681,0.0681 -0.19809,-0.0696 -0.28883,-0.30607 z m 0.75121,-6.90933 c 0.2237,0.0858 0.40673,0.037 0.40673,-0.1085 0,-0.14552 -0.18303,-0.33482 -0.40673,-0.42066 -0.42069,-0.16143 -1.44536,0.58185 -1.44536,1.04845 0,0.14552 0.2337,0.0531 0.51932,-0.20539 0.28562,-0.25849 0.70234,-0.39974 0.92604,-0.3139 z m 4.11089,12.6081 c 0,-0.67027 0.1029,-0.79375 0.66146,-0.79375 0.72407,0 0.91372,0.70025 0.34396,1.27001 -0.56473,0.56473 -1.00542,0.35598 -1.00542,-0.47626 z m 21.872226,0.61737 c -0.09701,-0.097 -0.176389,-0.44681 -0.176389,-0.77731 0,-0.43781 0.143626,-0.5901 0.529166,-0.56106 0.291042,0.0219 0.529167,0.18338 0.529167,0.3588 0,0.17541 0.07227,0.50726 0.160599,0.73744 0.11244,0.29302 0.0066,0.41851 -0.352777,0.41851 -0.282358,0 -0.592754,-0.0794 -0.689766,-0.17638 z m -7.584718,-0.35274 c 0,-0.14552 0.12608,-0.26459 0.28019,-0.26459 0.15411,0 0.20662,0.11907 0.11668,0.26459 -0.0899,0.14552 -0.21603,0.26458 -0.2802,0.26458 -0.0642,0 -0.11667,-0.11906 -0.11667,-0.26458 z m -6.879168,-0.66146 c 0,-0.21828 0.11532,-0.39688 0.25628,-0.39688 0.14095,0 0.18774,0.1786 0.10398,0.39688 -0.0838,0.21828 -0.19909,0.39687 -0.25628,0.39687 -0.0572,0 -0.10398,-0.17859 -0.10398,-0.39687 z m 7.337778,-0.16512 c 0.17947,-0.18083 0.39297,-0.26212 0.47443,-0.18066 0.0815,0.0815 -0.0654,0.22941 -0.32632,0.32877 -0.37709,0.14358 -0.40748,0.11319 -0.14811,-0.14811 z m -12.631808,-0.96483 c 0.16028,-0.33043 0.20798,-0.73578 0.10601,-0.90077 -0.11367,-0.18392 -0.0672,-0.22695 0.12005,-0.11121 0.40777,0.25201 0.3852,0.48606 -0.106,1.09917 -0.39441,0.4923 -0.39939,0.48869 -0.12006,-0.0872 z m 4.9908,0.28164 c -0.72646,-0.11162 -1.75452,-1.0186 -1.47332,-1.29979 0.0883,-0.0883 0.76646,-0.0151 1.5071,0.16256 0.74063,0.17767 1.70591,0.27031 2.14505,0.20586 0.566278,-0.0831 0.868568,0.0138 1.039608,0.33344 0.13265,0.24784 0.16599,0.52581 0.0741,0.6177 -0.17534,0.17534 -2.097778,0.1638 -3.292528,-0.0198 z m 3.910208,-0.21271 c -0.2298,-0.22981 -0.56014,-0.91852 -0.73409,-1.53049 -0.17395,-0.61196 -0.41526,-1.22577 -0.53625,-1.36401 -0.120978,-0.13825 -0.219978,-0.46567 -0.219978,-0.72761 0,-0.69561 2.811048,-0.70804 2.992618,-0.0132 0.0888,0.33972 0.12917,0.30034 0.15169,-0.14791 0.0169,-0.33601 0.15019,-0.53707 0.29625,-0.44681 0.29781,0.18406 0.0975,1.20631 -0.43707,2.23073 -0.19492,0.3735 -0.35512,0.9324 -0.35602,1.24201 -0.002,0.85626 -0.64058,1.27388 -1.15715,0.75731 z m -0.1534,-2.12728 c -0.12821,-0.42925 -0.24333,-0.58183 -0.25584,-0.33907 -0.0254,0.49273 0.25702,1.35143 0.39807,1.21038 0.05,-0.05 -0.014,-0.44206 -0.14223,-0.87131 z m 1.3985,2.14586 c 0.0962,-0.25082 0.175,-0.50584 0.175,-0.5667 0,-0.0609 0.63708,-0.11065 1.41573,-0.11065 0.77865,0 1.79676,-0.13283 2.262462,-0.29518 1.076841,-0.37538 1.346975,-0.11448 0.626956,0.60554 -0.443264,0.44326 -0.987768,0.58768 -2.607698,0.69164 -1.8587,0.11929 -2.03132,0.0894 -1.87245,-0.32465 z m 8.154277,-0.67735 c 0,-0.3638 0.06006,-0.51263 0.133453,-0.33073 0.0734,0.1819 0.0734,0.47956 0,0.66146 -0.0734,0.1819 -0.133453,0.0331 -0.133453,-0.33073 z m -13.535525,-0.68847 c -1.31319,-0.35109 -2.94785,-1.47896 -2.61946,-1.80735 0.0718,-0.0718 0.69903,0.0405 1.39377,0.24955 0.69474,0.20908 1.87914,0.41808 2.63201,0.46444 1.07888,0.0664 1.388688,0.18731 1.462508,0.57063 0.18722,0.97216 -0.630508,1.12116 -2.868828,0.52273 z m 5.824888,-0.0391 c 0.0122,-0.59987 0.59952,-0.9157 1.87753,-1.00971 0.78414,-0.0577 1.814956,-0.21851 2.290706,-0.3574 0.530101,-0.15475 0.80576,-0.15667 0.711992,-0.005 -0.252191,0.40805 0.196768,0.28007 0.755779,-0.21545 0.505378,-0.44797 0.512649,-0.44451 0.223756,0.10652 -0.48845,0.93166 -2.37077,1.67942 -4.227563,1.67942 -0.89994,0 -1.63443,-0.0893 -1.6322,-0.19844 z m -12.165578,-0.8425 c -0.15064,-0.28147 -0.27571,-0.72796 -0.27794,-0.99219 -0.003,-0.40697 -0.0433,-0.41974 -0.26054,-0.0835 -0.33043,0.51132 -0.31708,0.59813 -0.40702,-2.64583 -0.0424,-1.52797 -0.19933,-3.07578 -0.34881,-3.43958 -0.21098,-0.51347 -0.23793,-0.30628 -0.12045,0.92604 0.17628,1.84915 0.19365,2.32438 0.1297,3.54983 -0.0839,1.60741 -0.4394,0.57087 -0.61247,-1.78566 -0.24535,-3.34075 -0.71265,-6.41828 -1.03322,-6.80454 -0.17432,-0.21005 -0.18398,-0.39536 -0.0257,-0.49318 0.54217,-0.33508 0.98534,0.17992 1.47586,1.71509 0.28097,0.87933 0.61154,1.66101 0.7346,1.73706 0.12306,0.0761 0.15092,0.52653 0.0619,1.00104 -0.21103,1.12487 0.55489,5.56408 1.17929,6.83505 0.37475,0.76282 0.40552,0.99218 0.13306,0.99218 -0.1949,0 -0.47762,-0.23029 -0.62826,-0.51177 z m 21.299099,-0.30025 c 0.537133,-1.0387 1.180814,-4.39024 1.182399,-6.15656 0.0013,-1.43577 0.929825,-4.13002 1.682891,-4.88309 0.479644,-0.47964 0.916014,-0.24246 0.49631,0.26976 -0.301908,0.36846 -0.821182,3.91473 -1.046977,7.15014 -0.07871,1.12779 -0.262229,2.05053 -0.407821,2.05053 -0.246176,0 -0.09201,-3.80739 0.224983,-5.55626 l 0.119893,-0.66145 -0.28684,0.66145 c -0.157763,0.36381 -0.361069,2.09021 -0.451792,3.83646 -0.09072,1.74625 -0.237757,2.87735 -0.326739,2.51354 -0.141428,-0.57821 -0.185227,-0.60046 -0.348043,-0.17679 -0.102442,0.26656 -0.186256,0.70031 -0.186256,0.96388 0,0.39965 -0.477901,0.80041 -0.954477,0.80041 -0.0646,0 0.07151,-0.36541 0.302469,-0.81202 z m -16.194359,-0.79354 c -1.09626,-0.34745 -1.85702,-0.78396 -2.3151,-1.32836 -1.11138,-1.3208 -0.86925,-1.81579 0.2797,-0.5718 0.48445,0.52451 0.62777,0.59014 0.51348,0.23512 -0.12539,-0.38948 -0.0611,-0.45406 0.30748,-0.30879 0.25631,0.10102 1.38875,0.48341 2.51654,0.84974 1.82668,0.59336 2.63928,1.13494 1.71979,1.14621 -0.22049,0.003 -0.19844,0.0895 0.0661,0.26053 0.71242,0.46039 -1.33484,0.27301 -3.08803,-0.28265 z m 7.850528,0.28265 c 0,-0.14552 0.44649,-0.28148 0.99219,-0.30213 l 0.99219,-0.0376 -1.05833,-0.16777 -1.05834,-0.16778 1.45521,-0.36117 c 0.80037,-0.19863 2.318413,-0.69114 3.373439,-1.09444 1.055026,-0.40331 1.918229,-0.61273 1.918229,-0.46539 0,0.6364 -1.822431,2.03776 -3.170809,2.43818 -1.598469,0.4747 -3.443779,0.55938 -3.443779,0.15805 z m -5.441418,-2.51389 c -0.7234,-0.76703 -2.23149,-3.12574 -2.23149,-3.49014 0,-0.0641 0.32274,-0.0789 0.71721,-0.0328 0.60085,0.0701 0.75249,0.25468 0.9347,1.13749 0.27652,1.33975 0.52928,1.57958 1.73474,1.64603 0.538428,0.0297 1.667068,0.10196 2.508068,0.16064 0.841,0.0587 1.5823,0.0206 1.64733,-0.0846 0.065,-0.10522 0.40887,-0.13575 0.76409,-0.0679 0.58368,0.11158 0.69081,-0.0192 1.11296,-1.3584 0.33206,-1.05341 0.60035,-1.48186 0.927943,-1.48186 0.430289,0 0.42586,0.1008 -0.06686,1.52136 -0.290223,0.83674 -0.817163,1.81647 -1.170983,2.17718 -0.59177,0.6033 -0.85903,0.66055 -3.3359,0.71463 l -2.692588,0.0588 z m -2.49608,0.0302 c -1.80836,-0.40099 -2.96443,-1.00162 -3.6808,-1.91233 -0.81114,-1.03119 -0.67834,-1.23423 0.43966,-0.67225 0.5457,0.27431 1.46844,0.64959 2.05052,0.83395 0.58208,0.18437 1.2938,0.4573 1.5816,0.60653 0.5213,0.27029 0.5213,0.272 0,0.45689 -0.444,0.15747 -0.39301,0.21448 0.33663,0.37635 0.47294,0.10492 0.85989,0.30036 0.85989,0.43432 0,0.13396 -0.0298,0.23358 -0.0661,0.22139 -0.0364,-0.0122 -0.72099,-0.16738 -1.52136,-0.34485 z m 10.287078,0.008 c 0.19858,-0.23927 0.614364,-0.44341 0.923966,-0.45363 0.53113,-0.0175 0.534028,-0.0299 0.05131,-0.21894 -0.614474,-0.24063 -0.451297,-0.34817 1.437645,-0.94739 0.800365,-0.2539 1.857166,-0.69131 2.34845,-0.97203 0.491283,-0.28071 0.930973,-0.47265 0.977088,-0.42654 0.04611,0.0461 -0.162494,0.47291 -0.463572,0.94843 -0.6209,0.98065 -1.997001,1.77187 -3.53573,2.03295 -0.575315,0.0976 -1.283219,0.24379 -1.57312,0.32484 -0.463237,0.1295 -0.483357,0.0947 -0.166037,-0.28769 z m 2.942092,-1.09649 c 0.864116,-0.49397 0.561753,-0.49951 -0.564936,-0.0103 -0.489651,0.21258 -0.711679,0.38696 -0.493398,0.3875 0.218282,5.3e-4 0.694532,-0.16918 1.058334,-0.37715 z m -7.768602,0 c -0.0928,-0.24175 -5.3e-4,-0.39687 0.23628,-0.39687 0.21371,0 0.38857,0.17859 0.38857,0.39687 0,0.21828 -0.10632,0.39688 -0.23627,0.39688 -0.12996,0 -0.30481,-0.1786 -0.38858,-0.39688 z m 1.04367,0.1678 c -0.11397,-0.18441 -0.13577,-0.40675 -0.0484,-0.49408 0.2368,-0.23679 0.49498,0.11147 0.36708,0.49515 -0.0896,0.26887 -0.15194,0.26866 -0.31864,-0.001 z m 0.79375,0 c -0.11397,-0.18441 -0.13577,-0.40675 -0.0484,-0.49408 0.2368,-0.23679 0.49498,0.11147 0.36708,0.49515 -0.0896,0.26887 -0.15194,0.26866 -0.31864,-0.001 z m -3.593818,-0.43238 c 0,-0.21828 0.11906,-0.39688 0.26458,-0.39688 0.14553,0 0.264588,0.1786 0.264588,0.39688 0,0.21828 -0.119058,0.39687 -0.264588,0.39687 -0.14552,0 -0.26458,-0.17859 -0.26458,-0.39687 z m 0.937338,0.15057 c -0.0837,-0.13546 -0.0312,-0.32108 0.11668,-0.41249 0.14789,-0.0914 0.2689,0.0194 0.2689,0.2463 0,0.46475 -0.15877,0.53318 -0.38558,0.16619 z m -6.441718,-1.31401 c -1.65561,-0.57184 -2.84137,-1.60626 -3.51901,-3.06989 -0.72987,-1.57645 -0.60635,-1.86183 0.38034,-0.87874 1.88901,1.88213 2.85346,2.618 3.63641,2.7746 0.53183,0.10636 0.89938,0.38566 1.05859,0.80441 0.4038,1.06206 0.43026,1.05578 -1.55633,0.36962 z m 0.98442,-0.39552 c -0.30341,-0.28556 -2.86988,-1.4033 -2.74015,-1.19339 0.20562,0.3327 2.01265,1.27101 2.47556,1.28545 0.20616,0.006 0.32522,-0.035 0.26459,-0.0921 z m 12.192876,0.53302 c 0,-0.4764 0.406498,-0.76531 1.837182,-1.30575 0.752264,-0.28416 1.234993,-0.34823 1.340282,-0.17786 0.09281,0.15016 0.445399,-0.0514 0.808651,-0.46229 0.579096,-0.65502 0.583856,-0.67772 0.04716,-0.22494 -1.218721,1.02817 -0.781838,0.2146 0.742022,-1.38182 0.866087,-0.90733 1.574705,-1.59224 1.574705,-1.52203 0,0.0702 -0.243994,0.77978 -0.542206,1.57683 -0.66516,1.77779 -1.883124,2.90404 -3.735422,3.45411 -1.69259,0.50265 -2.072373,0.51066 -2.072373,0.0438 z m -7.011458,-0.42927 c -0.21577,-0.34912 0.1006,-0.84457 0.41516,-0.65016 0.32136,0.19862 0.31928,0.91474 -0.003,0.91474 -0.13694,0 -0.32256,-0.11906 -0.4125,-0.26458 z m 0.92604,-0.11667 c 0,-0.55976 0.44787,-0.74141 0.63374,-0.25704 0.22628,0.5897 0.20825,0.6383 -0.23686,0.6383 -0.21828,0 -0.39688,-0.17157 -0.39688,-0.38126 z m 1.32292,-0.0156 c 0,-0.21829 0.11906,-0.39688 0.26458,-0.39688 0.14552,0 0.26458,0.17859 0.26458,0.39688 0,0.21828 -0.11906,0.39687 -0.26458,0.39687 -0.14552,0 -0.26458,-0.17859 -0.26458,-0.39687 z m 0.98117,0.23152 c -0.20647,-0.20648 0.078,-0.89299 0.37005,-0.89299 0.30232,0 0.30915,0.71749 0.009,0.90324 -0.12522,0.0774 -0.29561,0.0728 -0.37864,-0.0103 z m -4.244368,-0.27562 c -0.30444,-0.30445 -0.19268,-0.61737 0.22049,-0.61737 0.21828,0 0.39687,0.1786 0.39687,0.39688 0,0.41316 -0.31292,0.52492 -0.61736,0.22048 z m 2.734028,-0.58451 c 0,-0.18408 -0.40632,-0.26434 -1.07178,-0.2117 -0.58947,0.0466 -1.133478,-0.0151 -1.208898,-0.1371 -0.0754,-0.12204 -0.26128,-0.14516 -0.41301,-0.0514 -0.15174,0.0938 -0.37311,0.0132 -0.49194,-0.17908 -0.17233,-0.27883 -0.35629,-0.28569 -0.90891,-0.0339 -1.30335,0.59385 -2.26249,0.28303 -3.28381,-1.06414 -0.48241,-0.63631 -0.70021,-4.21223 -0.30189,-4.95649 0.32272,-0.60301 0.35908,-0.7692 0.66853,-3.05639 0.30226,-2.23391 1.52852,-3.91445 3.80792,-5.21859 1.581148,-0.90464 3.153018,-1.04389 4.996008,-0.44257 0.93114,0.30381 3.234865,2.43388 3.234865,2.99103 0,0.14013 0.260411,0.53197 0.578691,0.87076 0.421318,0.44848 0.609593,1.04317 0.692312,2.18678 0.07934,1.09684 0.263977,1.70687 0.611934,2.02176 0.416351,0.37679 0.498313,0.8352 0.498313,2.78704 0,2.20847 -0.04224,2.38326 -0.773356,3.20014 -0.724866,0.80989 -0.874178,0.86118 -2.38125,0.81805 -0.884339,-0.0253 -1.607889,0.0468 -1.607889,0.16035 0,0.11351 -0.44649,0.18867 -0.99219,0.16704 -0.54571,-0.0216 -1.14102,0.0696 -1.32292,0.20276 -0.21186,0.1551 -0.33073,0.13556 -0.33073,-0.0544 z m -5.972978,-1.85084 c -0.28012,-0.27226 -0.55604,-0.45374 -0.61316,-0.40327 -0.16686,0.14745 0.5386,0.8983 0.844,0.8983 0.15316,0 0.0493,-0.22276 -0.23084,-0.49503 z m 4.914648,0.3936 c 0,-0.0558 -0.23829,-0.16374 -0.52953,-0.23991 -0.29125,-0.0762 -0.462808,-0.0305 -0.381258,0.10144 0.142408,0.23042 0.910788,0.34725 0.910788,0.13847 z m 6.631975,-0.17246 c 0.281475,-0.15064 0.511773,-0.40334 0.511773,-0.56156 0,-0.19571 -0.120216,-0.1879 -0.376065,0.0245 -0.250796,0.20814 -0.206727,-0.02 0.132292,-0.68501 0.60566,-1.18796 0.640691,-1.97851 0.131326,-2.96352 -0.555205,-1.07364 -1.628598,-1.4949 -2.445401,-0.95971 -1.90343,1.24718 -1.31556,4.88399 0.791114,4.89414 0.640107,0.003 0.746001,0.0652 0.443818,0.26053 -0.557032,0.35999 0.13598,0.35203 0.811143,-0.009 z m -8.571573,-0.68336 c 0.696,-1.06222 0.60656,-3.1034 -0.17231,-3.93247 -0.79311,-0.84422 -2.09712,-0.89511 -2.80802,-0.10958 -0.77937,0.86119 -0.70145,3.15903 0.1374,4.05195 0.88671,0.94385 2.22106,0.9392 2.84293,-0.01 z m 4.585428,0.42809 c 0,-0.14552 -0.0525,-0.26459 -0.11667,-0.26459 -0.0642,0 -0.19027,0.11907 -0.2802,0.26459 -0.0899,0.14552 -0.0374,0.26458 0.11667,0.26458 0.15411,0 0.2802,-0.11906 0.2802,-0.26458 z m -2.1248,-0.65166 c 0.28191,-0.33968 0.39375,-0.33957 0.91341,10e-4 1.0057,0.65895 1.24638,-0.0932 0.51979,-1.62439 -0.66508,-1.40155 -1.77116,-1.0534 -2.46688,0.77645 -0.434918,1.14393 0.29255,1.74002 1.03368,0.84701 z m 0.40829,-3.31709 c 0.1993,0 0.43595,0.11906 0.52589,0.26458 0.0899,0.14552 0.29401,0.26458 0.45349,0.26458 0.15949,0 0.0745,-0.23812 -0.18891,-0.52916 -0.74855,-0.82714 -1.98438,-0.53526 -1.98438,0.46869 0,0.28497 0.0892,0.27361 0.41578,-0.0529 0.22867,-0.22867 0.57884,-0.41577 0.77813,-0.41577 z m -5.876608,-1.25677 c 0.69968,-0.76905 1.94049,-0.7781 2.74742,-0.02 0.92041,0.86468 0.73687,0.11909 -0.20173,-0.81952 -0.44776,-0.44775 -1.07284,-0.80976 -1.38907,-0.80446 -0.68889,0.0116 -2.03957,1.6789 -2.00928,2.48036 0.0144,0.38236 0.0656,0.43039 0.16597,0.15583 0.0798,-0.21828 0.38881,-0.66476 0.68669,-0.99219 z m 10.554339,-0.59532 c 0.372983,0 0.828762,0.18147 1.012838,0.40327 0.184076,0.2218 0.398876,0.33908 0.477332,0.26062 0.236443,-0.23644 -1.610262,-1.9868 -2.096161,-1.9868 -0.25217,0 -0.56763,0.32112 -0.71478,0.7276 -0.14488,0.40018 -0.35418,0.96573 -0.46513,1.25677 -0.18736,0.4915 -0.15511,0.48679 0.45301,-0.0661 0.36011,-0.32742 0.95991,-0.59532 1.332891,-0.59532 z m -14.015989,5.38082 c -2.41561,-1.19061 -2.92306,-4.65472 -1.00545,-6.86358 1.09543,-1.26181 1.48815,-1.06388 0.57092,0.28773 -0.84969,1.25209 -1.08189,2.49547 -0.68859,3.68719 0.28444,0.86186 0.66771,1.27925 2.02892,2.20948 0.45617,0.31175 0.44868,0.32479 -0.10363,0.18061 -0.8135,-0.21236 -0.74839,0.0449 0.13229,0.52267 0.98579,0.5348 0.15607,0.51339 -0.93446,-0.0241 z m -1.11606,-2.20582 c -0.29696,-0.58208 -0.59409,-1.05833 -0.66029,-1.05833 -0.17337,0 0.3746,1.37555 0.70799,1.77727 0.51597,0.62171 0.498,0.35072 -0.0477,-0.71894 z m 18.389702,2.37937 c 0.09058,-0.14655 0.544087,-0.45706 1.007801,-0.69002 1.035021,-0.51996 1.758879,-1.38145 1.75292,-2.08622 -0.0032,-0.3835 -0.104947,-0.29819 -0.369459,0.3099 -0.200742,0.46148 -0.642567,0.98504 -0.981832,1.16345 -0.566025,0.29767 -0.557432,0.26425 0.104334,-0.40569 1.284202,-1.30007 1.302591,-3.44729 0.04366,-5.09784 -0.835171,-1.09496 -0.627314,-1.46029 0.329443,-0.57902 0.867968,0.79948 1.671759,2.50479 1.673683,3.55087 0.0021,1.08441 -1.001112,2.76847 -2.083515,3.4979 -0.917368,0.61822 -1.77134,0.81287 -1.477035,0.33667 z m 10.196989,-2.30492 c -0.0082,-0.41073 -0.130876,-0.54127 -0.408569,-0.43471 -0.293796,0.11274 -0.40123,-0.044 -0.413647,-0.60361 -0.01622,-0.73159 -0.02466,-0.73621 -0.262345,-0.14361 -0.280855,0.70029 -0.779217,0.54253 -0.779217,-0.24666 0,-0.29104 -0.119062,-0.45558 -0.264583,-0.36565 -0.145521,0.0899 -0.264583,0.40165 -0.264583,0.69269 0,0.29104 -0.119063,0.45558 -0.264584,0.36565 -0.14552,-0.0899 -0.283316,-0.008 -0.306213,0.18282 -0.02289,0.19049 -0.133749,-0.42756 -0.24634,-1.37345 -0.112591,-0.94588 -0.242684,-2.00185 -0.289099,-2.34659 -0.08317,-0.61776 0.160186,-0.8616 1.238527,-1.24098 1.252194,-0.44055 1.906329,-0.36607 2.519741,0.28688 0.338365,0.36017 0.481309,0.65486 0.317651,0.65486 -0.163655,0 -0.40509,-0.19216 -0.536522,-0.42701 -0.251164,-0.4488 -1.374828,-0.30148 -1.374828,0.18026 0,0.31661 0.351391,0.3171 0.674688,0.001 0.15572,-0.15228 0.492939,-0.0484 0.886309,0.27295 0.911526,0.74471 1.069795,2.69614 0.332129,4.09516 -0.437063,0.82891 -0.54917,0.91924 -0.558515,0.45006 z m -2.580865,-4.0432 c 0.07611,-0.29104 0.03046,-0.52916 -0.101433,-0.52916 -0.131897,0 -0.239813,0.23812 -0.239813,0.52916 0,0.29105 0.04565,0.52917 0.101433,0.52917 0.05579,0 0.163703,-0.23812 0.239813,-0.52917 z m -34.560426,3.20873 c -0.56227,-1.40526 -0.30881,-3.93009 0.46172,-4.59937 0.73048,-0.63448 2.92387,-0.44898 3.62802,0.30685 0.45233,0.48551 0.45657,0.58462 0.0651,1.52144 -0.27684,0.66256 -0.36617,1.38538 -0.26366,2.1333 0.1465,1.0688 0.12675,1.11353 -0.35796,0.81083 -0.28215,-0.17621 -0.56125,-0.56271 -0.62022,-0.85889 -0.0784,-0.39396 -0.11689,-0.3432 -0.14325,0.18909 -0.0432,0.87207 -0.49769,0.9562 -0.79684,0.14751 -0.20777,-0.56165 -0.22037,-0.5571 -0.39611,0.14312 -0.0998,0.39776 -0.29709,0.65178 -0.43834,0.56448 -0.14126,-0.0873 -0.25683,0.0269 -0.25683,0.25376 0,0.75121 -0.46549,0.42804 -0.88168,-0.61212 z m 3.7921,-3.18042 c 0,-0.27547 -0.16001,-0.56226 -0.35557,-0.6373 -0.25468,-0.0977 -0.321,0.0444 -0.23374,0.50086 0.14415,0.75408 0.58931,0.85715 0.58931,0.13644 z m -2.91042,-0.8271 c 0,-0.15237 0.31641,-0.20751 0.72761,-0.12679 0.67733,0.13297 0.68801,0.12207 0.15446,-0.15779 -0.45501,-0.23866 -0.69889,-0.21253 -1.18335,0.1268 -0.49209,0.34467 -0.52199,0.42741 -0.15447,0.42741 0.25066,0 0.45575,-0.12133 0.45575,-0.26963 z m 27.417061,3.03752 c -0.255317,-0.66534 -0.179998,-0.83702 0.131903,-0.30065 0.154435,0.26557 0.225055,0.5386 0.156933,0.60672 -0.06812,0.0681 -0.198099,-0.0696 -0.288836,-0.30607 z m -18.942351,-0.1882 c -0.004,-0.25467 0.14079,-0.46485 0.32269,-0.46708 0.21953,-0.003 0.19729,-0.0884 -0.0661,-0.25501 -0.34598,-0.21878 -0.33557,-0.31157 0.0812,-0.72356 0.45968,-0.45439 0.47459,-0.44712 0.38735,0.18887 -0.0499,0.36381 -0.23165,0.89959 -0.40388,1.19063 -0.27419,0.46332 -0.31416,0.47155 -0.32121,0.0661 z m -11.0544,-0.90284 c -0.4367,-0.17621 -0.42096,-0.74342 0.031,-1.11855 0.27705,-0.22993 0.44745,-0.19464 0.72761,0.15068 0.24523,0.30227 0.2568,0.38543 0.0351,0.25223 -0.29914,-0.17972 -0.45324,0.11498 -0.36206,0.69243 0.0172,0.10914 0.002,0.18904 -0.0348,0.17755 -0.0364,-0.0115 -0.21498,-0.0809 -0.39688,-0.15434 z m 40.716602,-0.28496 c -0.409636,-0.76542 0.033,-1.2518 0.584555,-0.64233 0.391451,0.43255 0.399952,0.5392 0.06512,0.81708 -0.309777,0.2571 -0.436848,0.22292 -0.649675,-0.17475 z m -41.576492,-1.47361 c 0,-0.33599 0.17009,-0.84201 0.37798,-1.12448 0.36007,-0.48926 0.38679,-0.49086 0.56395,-0.0337 0.20925,0.53998 -0.2574,1.76906 -0.67168,1.76906 -0.14864,0 -0.27025,-0.27489 -0.27025,-0.61088 z m 8.46666,0.37753 c 0,-0.14552 0.11907,-0.33817 0.26459,-0.4281 0.14552,-0.0899 0.26458,-0.0445 0.26458,0.10106 0,0.14552 -0.11906,0.33817 -0.26458,0.4281 -0.14552,0.0899 -0.26459,0.0445 -0.26459,-0.10106 z m 25.532295,-0.0312 c -0.08994,-0.14552 -0.04446,-0.26458 0.101063,-0.26458 0.145521,0 0.338166,0.11906 0.428104,0.26458 0.08994,0.14552 0.04446,0.26458 -0.101063,0.26458 -0.145521,0 -0.338167,-0.11906 -0.428104,-0.26458 z m 8.246182,0.0882 c -0.255662,-0.25566 -0.216914,-1.6757 0.04572,-1.6757 0.308629,0 0.780682,1.11906 0.641755,1.52136 -0.125497,0.36339 -0.413716,0.4281 -0.687477,0.15434 z m -34.919117,-1.31345 c 0.12685,-0.33057 0.0732,-0.39723 -0.20345,-0.25299 -0.20664,0.10772 -0.0954,-0.0507 0.24717,-0.35205 0.34258,-0.30135 0.72954,-0.48199 0.8599,-0.40142 0.37516,0.23186 0.26852,0.47712 -0.42773,0.98372 -0.59231,0.43098 -0.6333,0.43293 -0.47589,0.0227 z m 1.61337,-0.36204 c -0.1231,-0.8388 0.15343,-1.08295 0.42501,-0.37523 0.23263,0.60622 0.19703,1.16898 -0.074,1.16898 -0.129,0 -0.28697,-0.35719 -0.35105,-0.79375 z m 24.66269,0 c 0,-0.48312 0.137382,-0.79375 0.351052,-0.79375 0.239556,0 0.31405,0.2521 0.234553,0.79375 -0.06407,0.43656 -0.222046,0.79375 -0.351052,0.79375 -0.129003,0 -0.234553,-0.35719 -0.234553,-0.79375 z m 1.368478,0.30818 c -0.51897,-0.39923 -0.556969,-0.52271 -0.241454,-0.78456 0.296712,-0.24625 0.493724,-0.18379 0.949045,0.30088 0.316032,0.3364 0.494141,0.6921 0.395795,0.79044 -0.262318,0.26232 -0.420978,0.21821 -1.103386,-0.30676 z m 5.098238,-0.15807 c -0.423569,-0.31263 -0.452874,-0.44016 -0.167185,-0.72761 0.285985,-0.28775 0.313243,-0.25625 0.156281,0.18063 -0.104568,0.29104 -0.09555,0.44363 0.02006,0.3391 0.115593,-0.10453 0.238432,-0.46172 0.27297,-0.79375 0.105596,-1.01503 0.131117,-1.12131 0.353367,-1.47155 0.172442,-0.27175 0.364548,-0.26108 0.971868,0.054 l 0.756944,0.39271 -0.992722,0.93626 c -0.546,0.51494 -0.918605,1.05619 -0.828017,1.20276 0.227468,0.36806 0.06088,0.33356 -0.543554,-0.11255 z m -38.683486,-1.06762 c -0.88111,-1.25004 -0.87401,-1.29144 0.26833,-1.56449 0.62616,-0.14966 0.73198,-0.0902 0.75896,0.42644 0.0173,0.3302 0.009,0.76113 -0.0177,0.95763 -0.027,0.19651 0.0697,0.28386 0.21495,0.19413 0.1452,-0.0897 0.35015,-0.0238 0.45545,0.14662 0.12537,0.20286 0.0762,0.23857 -0.14236,0.10347 -0.24951,-0.15421 -0.28633,-0.0476 -0.1458,0.42214 0.18513,0.61886 0.1812,0.62037 -0.25784,0.0993 -0.37177,-0.44125 -0.42165,-0.45224 -0.30025,-0.0662 0.21904,0.69663 0.079,0.57586 -0.83374,-0.71907 z m 4.28753,7.9e-4 c -0.20467,-1.09095 -0.0186,-1.72911 0.50417,-1.72911 0.76463,0 1.02953,0.69861 0.58837,1.55171 -0.60676,1.17334 -0.89687,1.22045 -1.09254,0.17743 z m 30.481884,-0.0391 c -0.433773,-0.90963 -0.432945,-0.9731 0.01715,-1.3145 0.738013,-0.5598 1.054542,-0.44401 1.233599,0.45127 0.232527,1.16263 0.208875,1.34796 -0.144182,1.12976 -0.208134,-0.12863 -0.254196,-0.0471 -0.140594,0.24897 0.339002,0.88343 -0.516599,0.42683 -0.965965,-0.5155 z m -31.396274,0.27227 c -0.003,-0.42425 -0.0459,-0.44226 -0.26054,-0.11022 -0.20348,0.31488 -0.25815,0.26021 -0.26458,-0.26458 -0.006,-0.52479 -0.0611,-0.57946 -0.26458,-0.26459 -0.20623,0.31912 -0.25728,0.27683 -0.26053,-0.21583 -0.002,-0.33699 -0.13415,-0.85578 -0.29315,-1.15288 -0.36374,-0.67965 0.0272,-1.1313 0.77412,-0.89425 0.42159,0.1338 0.57771,0.48631 0.72009,1.62588 0.1,0.80027 0.10787,1.52896 0.0175,1.61932 -0.0904,0.0904 -0.16611,-0.0639 -0.16834,-0.34282 z m 33.566675,-0.30866 c -0.254042,-0.30469 -0.33592,-0.77967 -0.239442,-1.38906 0.121827,-0.76953 0.269581,-0.94019 0.87421,-1.00976 0.82034,-0.0944 0.881684,0.12724 0.373388,1.34899 -0.194819,0.46827 -0.303959,1.00022 -0.242536,1.18213 0.164176,0.48618 -0.319656,0.40258 -0.76562,-0.1323 z m -29.850045,-0.66145 c 0.005,-0.18191 0.18322,-0.56185 0.39687,-0.84432 0.32067,-0.42396 0.38846,-0.43928 0.38846,-0.0878 0,0.6185 -0.28444,1.26283 -0.55747,1.26283 -0.12995,0 -0.23249,-0.14882 -0.22786,-0.33072 z m 25.300643,-0.25303 c -0.17509,-0.66956 -0.06665,-0.86779 0.337921,-0.61775 0.339558,0.20986 0.379558,1.2015 0.04846,1.2015 -0.128548,0 -0.302419,-0.26269 -0.386381,-0.58375 z m -26.219853,-0.76384 c 0.0816,-0.13195 -0.0601,-0.23991 -0.31478,-0.23991 -0.4189,0 -0.41444,-0.0356 0.0468,-0.37279 0.35578,-0.26015 0.65311,-0.29612 0.98402,-0.11902 0.55556,0.29733 0.4212,0.63547 -0.33062,0.83208 -0.29352,0.0767 -0.46694,0.0316 -0.38539,-0.10036 z m 26.958004,0.002 c -0.268256,-0.43405 0.309943,-0.86801 0.856358,-0.64273 0.323083,0.1332 0.371774,0.23893 0.148429,0.32231 -0.182809,0.0683 -0.265078,0.23298 -0.182822,0.36607 0.08225,0.13309 -0.02904,0.24199 -0.247322,0.24199 -0.218281,0 -0.476869,-0.12944 -0.574643,-0.28764 z m -33.084504,-0.45508 c 0.11443,-0.19022 0.24089,-0.64506 0.28103,-1.01076 0.0874,-0.79599 0.51544,-1.28421 0.91141,-1.0395 0.34446,0.21289 -0.22501,1.44179 -0.93536,2.0185 -0.33223,0.26972 -0.40568,0.27879 -0.25708,0.0318 z m 39.31356,-0.64631 c -0.620305,-1.01737 -0.669075,-1.52136 -0.147222,-1.52136 0.372541,0 0.468699,0.20077 0.79203,1.65365 0.214501,0.96385 -0.0038,0.91907 -0.644808,-0.13229 z m -3.616335,-0.51535 c -0.394526,-0.43595 -0.400818,-0.53893 -0.05412,-0.88562 0.346697,-0.3467 0.482846,-0.2919 1.17089,0.47125 0.428218,0.47497 0.606859,0.71475 0.396981,0.53284 -0.508664,-0.44086 -0.947214,-0.4241 -0.576942,0.022 0.475175,0.57256 -0.411901,0.43949 -0.936805,-0.14052 z m -32.065765,-0.12328 c 0.33183,-0.40225 0.30612,-0.41111 -0.29833,-0.10273 l -0.66146,0.33746 0.71245,-0.73599 c 0.60629,-0.62634 0.77483,-0.68423 1.13115,-0.3885 0.38099,0.31618 0.37866,0.39175 -0.0259,0.83872 -0.59024,0.65221 -1.39329,0.69998 -0.85796,0.051 z m 2.14906,0.28585 c 0.0849,-0.0849 -0.0838,-0.39246 -0.37482,-0.68351 -0.7541,-0.75409 -0.35145,-0.96492 0.43386,-0.22716 0.63566,0.59718 0.67067,1.06501 0.0797,1.06501 -0.16119,0 -0.22361,-0.0694 -0.13873,-0.15434 z m 27.97969,-0.0692 c 0,-0.12297 0.238125,-0.43908 0.529167,-0.70247 0.612227,-0.55406 0.75084,-0.0516 0.15119,0.54807 -0.427029,0.42703 -0.680357,0.48452 -0.680357,0.1544 z m 4.015497,-0.74669 c 0.04705,-0.2426 0.225004,-0.48753 0.395454,-0.54428 0.197144,-0.0656 0.258119,0.0949 0.167579,0.4411 -0.169114,0.64669 -0.686845,0.74157 -0.563033,0.10318 z m -35.861177,-0.22036 c -0.0838,-0.21828 -0.0497,-0.39688 0.0757,-0.39688 0.12538,0 0.2965,0.1786 0.38027,0.39688 0.0838,0.21828 0.0497,0.39687 -0.0757,0.39687 -0.12539,0 -0.29651,-0.17859 -0.38027,-0.39687 z m -3.18318,-2.01265 c -0.20852,-0.66076 -0.0799,-1.29465 0.26273,-1.29465 0.22066,0 0.29053,0.24668 0.2044,0.72165 -0.15893,0.87643 -0.31209,1.0643 -0.46713,0.573 z m 43.945808,-0.13881 c -0.286687,-0.28669 0.338825,-1.15691 0.815798,-1.13495 0.278617,0.0128 0.325443,0.0726 0.121335,0.15489 -0.182809,0.0737 -0.265078,0.2429 -0.182822,0.37599 0.08225,0.13309 0.01644,0.24198 -0.146259,0.24198 -0.162697,0 -0.222229,0.11907 -0.132291,0.26459 0.178477,0.28878 -0.205738,0.36752 -0.475761,0.0975 z m -42.519028,-0.78373 c 0,-0.76103 0.67298,-0.8625 0.86444,-0.13034 0.0897,0.34299 -0.0284,0.54839 -0.36601,0.63669 -0.38621,0.10099 -0.49843,-0.013 -0.49843,-0.50635 z m 41.274997,0.44329 c 0,-0.46493 0.322786,-1.07998 0.566782,-1.07998 0.14196,0 0.130908,0.21428 -0.02619,0.50782 -0.197642,0.3693 -0.182137,0.54404 0.05684,0.64057 0.193805,0.0783 0.138668,0.14132 -0.134405,0.15364 -0.254662,0.0115 -0.463021,-0.0884 -0.463021,-0.22205 z M -116.37832,281.134 c -0.0957,-0.0958 -0.16572,-0.42214 -0.15549,-0.72531 0.0183,-0.54217 0.0223,-0.54253 0.24598,-0.022 0.19444,0.4525 0.23009,0.46208 0.24599,0.0661 0.0218,-0.54228 0.54776,-0.6369 0.54776,-0.0985 0,0.44873 -0.64578,1.01821 -0.88424,0.77975 z m 38.750348,-0.0506 c -0.01915,-0.22565 -0.227914,-0.31001 -0.555267,-0.22441 -0.441447,0.11544 -0.483151,0.0598 -0.26316,-0.35128 0.56007,-1.0465 1.275704,-0.70909 0.973095,0.4588 -0.06819,0.26316 -0.137787,0.31576 -0.154668,0.11689 z m -37.295168,-0.82904 c 0,-0.3638 0.0601,-0.51263 0.13346,-0.33073 0.0734,0.1819 0.0734,0.47956 0,0.66146 -0.0734,0.1819 -0.13346,0.0331 -0.13346,-0.33073 z m 1.30389,0.0661 c -0.0125,-0.32742 -0.17157,-0.59893 -0.35347,-0.60336 -0.18191,-0.004 -0.11344,-0.1344 0.15213,-0.28884 0.64173,-0.37317 0.73617,-0.22711 0.45717,0.70706 -0.19495,0.65274 -0.23681,0.68303 -0.25583,0.18514 z m 32.525054,0.13229 c 0.0021,-0.1819 0.13162,-0.50932 0.287536,-0.72761 0.228849,-0.32038 0.258977,-0.28458 0.156327,0.18576 -0.06994,0.32044 0.009,0.63846 0.175487,0.70671 0.166452,0.0683 0.09428,0.13349 -0.16038,0.14498 -0.254661,0.0115 -0.461198,-0.12794 -0.45897,-0.30984 z m -31.224884,-0.59531 c 0,-0.45512 0.14444,-0.6602 0.46302,-0.65741 0.3957,0.003 0.40532,0.0413 0.0661,0.26053 -0.35278,0.22799 -0.35278,0.25738 0,0.26458 0.32515,0.007 0.33169,0.0494 0.0362,0.23661 -0.3045,0.19292 -0.3045,0.25084 0,0.37194 0.25146,0.1 0.22047,0.14975 -0.10236,0.16432 -0.32307,0.0146 -0.46302,-0.17904 -0.46302,-0.64057 z m 1.55443,0.45357 c -0.10402,-1.01047 -0.0683,-1.21355 0.23137,-1.31342 0.53498,-0.17833 0.71145,0.72495 0.23476,1.20164 -0.28974,0.28974 -0.444,0.32673 -0.46613,0.11178 z m 28.182887,-0.21063 c 0.08833,-0.23018 0.1606,-0.52784 0.1606,-0.66146 0,-0.13362 0.208359,-0.24112 0.463021,-0.23889 0.362357,0.003 0.384608,0.0537 0.102354,0.23255 -0.304501,0.19292 -0.304501,0.25085 0,0.37194 0.282239,0.11224 0.285353,0.14797 0.01431,0.16432 -0.19049,0.0115 -0.272759,0.13995 -0.182822,0.28547 0.08994,0.14552 -0.03484,0.26459 -0.277276,0.26459 -0.293248,0 -0.38704,-0.1401 -0.280199,-0.41852 z m -25.327597,-0.0225 c -0.34766,-0.34766 -0.1853,-1.67569 0.20487,-1.67569 0.52918,0 0.65121,0.28064 0.48961,1.12599 -0.1375,0.71925 -0.35375,0.89043 -0.69448,0.5497 z m 23.900697,-0.35498 c 0,-0.61369 0.694258,-0.99687 1.089702,-0.60143 0.170791,0.1708 0.02811,0.41258 -0.414658,0.70269 -0.648147,0.42469 -0.675044,0.42065 -0.675044,-0.10126 z m -22.489587,-0.34431 c 0,-0.36036 0.15418,-0.71437 0.34262,-0.78668 0.22692,-0.0871 0.3386,0.0969 0.33073,0.545 -0.0156,0.88922 -0.67335,1.12529 -0.67335,0.24168 z m 19.969494,0.13589 c 0.07636,-0.199 0.138843,-0.47115 0.138843,-0.60477 0,-0.13361 0.165999,-0.24294 0.368884,-0.24294 0.21885,0 0.353574,0.24598 0.331235,0.60476 -0.02421,0.38891 -0.205433,0.60477 -0.507728,0.60477 -0.288901,0 -0.416565,-0.13946 -0.331234,-0.36182 z m 1.46581,0.29239 c 0.0022,-0.11773 0.119467,-0.39265 0.260533,-0.61093 0.221033,-0.34203 0.25704,-0.33504 0.260532,0.0505 0.0021,0.24607 -0.115012,0.52099 -0.260532,0.61093 -0.145521,0.0899 -0.262761,0.0672 -0.260533,-0.0505 z m -19.890394,-0.80937 c 0.12262,-0.60037 0.16782,-0.63507 0.2585,-0.19844 0.0604,0.29104 0.24495,0.61664 0.41001,0.72356 0.17987,0.11649 0.0763,0.19601 -0.2585,0.19843 -0.46961,0.003 -0.53494,-0.11187 -0.41001,-0.72355 z m 1.20147,0.3434 c -0.1728,-0.4503 0.0752,-0.93871 0.47664,-0.93871 0.17554,0 0.15559,0.15154 -0.053,0.40293 -0.27961,0.33691 -0.26324,0.37562 0.0999,0.23628 0.29165,-0.11192 0.4343,-0.027 0.4343,0.25852 0,0.52998 -0.7577,0.5624 -0.95779,0.041 z m 11.545174,-0.0788 c 0.0021,-0.25466 0.131619,-0.64161 0.287536,-0.85989 0.227751,-0.31885 0.257831,-0.27984 0.153011,0.19844 -0.07176,0.32742 -0.01553,0.59531 0.124955,0.59531 0.140486,0 0.181843,0.11906 0.0919,0.26458 -0.262794,0.42521 -0.66181,0.30477 -0.657407,-0.19844 z m 1.259448,0.31541 c -0.34698,-0.34698 0.148278,-1.17383 0.685589,-1.14461 0.500909,0.0272 0.508005,0.0452 0.06303,0.15909 -0.402887,0.10316 -0.428885,0.17433 -0.132292,0.36213 0.308869,0.19558 0.30434,0.23506 -0.02774,0.24184 -0.352776,0.007 -0.352776,0.0366 0,0.26458 0.347771,0.22475 0.345044,0.25698 -0.02204,0.26053 -0.23041,0.002 -0.485349,-0.0624 -0.566537,-0.14356 z m 3.255307,-0.29336 c -0.01148,-0.31529 -0.169717,-0.63332 -0.351618,-0.70671 -0.181901,-0.0734 0.01127,-0.14285 0.42927,-0.15434 0.57262,-0.0157 0.69554,0.0606 0.498549,0.30984 -0.143801,0.1819 -0.327572,0.50932 -0.408384,0.7276 -0.09949,0.26873 -0.153675,0.21177 -0.167817,-0.17639 z m -14.531199,-0.35278 c 0,-0.3638 0.0601,-0.51263 0.13346,-0.33072 0.0734,0.1819 0.0734,0.47955 0,0.66145 -0.0734,0.18191 -0.13346,0.0331 -0.13346,-0.33073 z m 0.75198,0.34755 c 0,-0.34931 0.7259,-1.29954 0.87154,-1.14088 0.31102,0.33882 0.46322,1.3225 0.20462,1.3225 -0.15533,0 -0.28241,-0.13364 -0.28241,-0.29698 0,-0.20518 -0.12267,-0.19517 -0.39688,0.0324 -0.21828,0.18116 -0.39687,0.21849 -0.39687,0.083 z m 1.856128,-0.2814 c -0.002,-0.32742 0.11501,-0.59531 0.26053,-0.59531 0.33151,0 0.33151,0.28078 0,0.79375 -0.20739,0.32093 -0.25725,0.28295 -0.26053,-0.19844 z m 0.70613,0.26458 c -0.0631,-0.10914 -0.019,-0.43656 0.0981,-0.7276 0.18585,-0.46196 0.21525,-0.43676 0.23148,0.19844 0.0183,0.71781 -0.10544,0.91657 -0.32956,0.52916 z m 2.46482,-0.46302 c 0,-0.86197 0.38529,-0.86181 0.43503,1.9e-4 0.021,0.3637 -0.0683,0.66127 -0.19844,0.66127 -0.13012,0 -0.23659,-0.29765 -0.23659,-0.66146 z m 1.61819,0.22049 c -0.0169,-0.31529 -0.17952,-0.63332 -0.36142,-0.70672 -0.1819,-0.0734 0.0265,-0.14102 0.46302,-0.15029 0.43657,-0.009 0.6587,0.0706 0.49363,0.17755 -0.16506,0.10692 -0.35961,0.43252 -0.43233,0.72356 -0.12382,0.49561 -0.13415,0.49282 -0.1629,-0.0441 z m 1.427497,-0.0788 c -0.100973,-0.31813 -0.113181,-0.64882 -0.02714,-0.73487 0.08605,-0.0861 0.158274,0.0122 0.160502,0.21838 0.0034,0.31335 0.04442,0.31099 0.250197,-0.0144 0.3854,-0.6094 0.488218,-0.21193 0.125373,0.48467 l -0.325355,0.62463 -0.183581,-0.57842 z m -27.015515,-0.31447 c -0.11456,-0.18537 -0.24188,-2.93282 -0.28294,-6.10545 -0.0469,-3.6211 -0.18534,-5.97528 -0.37202,-6.3241 -0.19776,-0.36952 -0.23667,-1.32274 -0.11614,-2.84558 0.15473,-1.95497 0.0983,-2.536 -0.38549,-3.97225 -0.7673,-2.27767 -0.66106,-3.04468 0.43645,-3.151 1.25763,-0.12183 1.42499,0.44525 1.44809,4.90691 0.0127,2.45613 0.15251,4.33404 0.37853,5.08506 0.26219,0.87117 0.31845,2.15096 0.20961,4.76832 -0.0818,1.96766 -0.0439,4.05381 0.0842,4.63589 0.20606,0.93625 0.32989,1.06782 1.07342,1.14057 1.16459,0.11394 1.38284,-0.78685 0.57342,-2.36672 -0.39492,-0.77083 -0.58264,-1.58609 -0.56428,-2.45067 0.0315,-1.48123 0.26582,-1.82845 1.14971,-1.70339 0.57862,0.0819 0.62586,0.20831 0.62626,1.67605 2.7e-4,1.07845 0.20255,2.06508 0.63076,3.07689 0.47459,1.12143 0.58527,1.72951 0.44799,2.4613 -0.21308,1.13584 -0.17589,1.11911 -2.97193,1.33704 -1.61091,0.12556 -2.21009,0.0828 -2.36562,-0.16887 z m 42.518871,-0.3806 c -0.508156,-0.64601 -0.557374,-1.04496 -0.557374,-4.51786 0,-2.69812 0.109963,-4.07245 0.376978,-4.71151 0.346218,-0.82861 0.481148,-0.90888 1.653646,-0.98369 l 1.276668,-0.0815 0.17227,-1.45521 c 0.09475,-0.80037 0.184047,-3.13697 0.198437,-5.19245 0.01439,-2.05548 0.102635,-4.11958 0.196096,-4.58688 0.207365,-1.03683 1.080069,-1.53242 1.913271,-1.0865 0.712891,0.38153 0.717516,1.18801 0.0159,2.77411 -0.431195,0.97478 -0.542055,1.75067 -0.524614,3.67165 0.02521,2.776 -0.170963,8.56028 -0.454988,13.4159 l -0.193458,3.30729 -1.75773,0.0776 c -1.634876,0.0722 -1.796688,0.0281 -2.315104,-0.631 z m 2.464723,-2.29087 c 0.06697,-0.32742 0.192231,-1.60898 0.278355,-2.8479 0.122116,-1.75665 0.07085,-2.3683 -0.232844,-2.77813 -0.373943,-0.50463 -0.408493,-0.50674 -0.868624,-0.0532 -0.369351,0.36409 -0.500629,0.98694 -0.572704,2.71723 -0.05143,1.23467 -0.01939,2.54016 0.07119,2.90107 0.214193,0.85342 1.1537,0.89661 1.324631,0.0609 z m -37.888024,1.47606 c -0.18579,-0.0747 -0.58841,-0.62703 -0.8947,-1.22742 -0.68501,-1.34272 -1.26213,-7.54005 -0.73264,-7.86729 0.41938,-0.25919 3.43703,-0.5888 3.6294,-0.39643 0.0844,0.0844 0.43515,1.4907 0.77948,3.12514 0.95403,4.52856 0.49913,6.56415 -1.45765,6.5227 -0.54235,-0.0115 -1.1381,-0.082 -1.32389,-0.1567 z m 1.6816,-2.88335 c 0.21125,-1.12608 -0.25316,-3.6599 -0.833,-4.54486 -0.34575,-0.52767 -0.48056,-0.57638 -0.81866,-0.29578 -0.57754,0.47931 -0.40161,4.07798 0.24782,5.06902 0.65244,0.99564 1.19063,0.90809 1.40384,-0.22838 z m 30.792769,2.87926 c -0.0057,-0.11836 -0.01672,-2.41136 -0.02458,-5.09556 -0.01281,-4.3767 0.03414,-4.91577 0.454845,-5.2234 0.387887,-0.28363 0.542126,-0.27696 0.890741,0.0385 0.359222,0.32509 0.417669,1.1177 0.39492,5.35568 l -0.0267,4.97413 -0.839456,0.0829 c -0.461701,0.0456 -0.844095,-0.0139 -0.849765,-0.1323 z m -2.715374,-0.79535 c -0.0714,-0.11748 -0.110019,-1.869 -0.08582,-3.89228 0.03644,-3.04627 0.116504,-3.72441 0.465746,-3.94471 0.23196,-0.14632 0.604899,-0.19575 0.828752,-0.10985 0.343551,0.13184 0.400722,0.76748 0.366694,4.07701 l -0.04032,3.92082 -0.702617,0.0813 c -0.38644,0.0447 -0.76104,-0.0148 -0.83244,-0.1323 z m -24.519315,-1.18827 c -0.71388,-1.16945 -0.97469,-2.00496 -1.68882,-5.41006 -0.6899,-3.28958 -0.60819,-4.16016 0.40163,-4.27906 0.91054,-0.10721 1.05037,0.2901 1.28539,3.65234 0.2162,3.09304 0.6515,4.67684 1.07663,3.9172 0.34998,-0.62537 0.39488,-2.06165 0.15202,-4.86349 -0.2311,-2.66631 0.01,-3.23247 1.24455,-2.92261 0.8396,0.21072 0.99323,0.94113 0.68651,3.2639 -0.14002,1.06035 -0.37551,2.83835 -0.52333,3.9511 -0.32346,2.4351 -0.73058,3.37276 -1.5129,3.48443 -0.42723,0.061 -0.73124,-0.15414 -1.12168,-0.79375 z m 4.79424,0.17019 c -0.56078,-0.71292 -1.09862,-2.76093 -1.09496,-4.16948 0.004,-1.57723 0.75657,-6.57133 1.04193,-6.91517 0.34052,-0.4103 2.81991,-0.7392 3.917548,-0.51968 l 0.78456,0.15692 0.17996,3.01017 c 0.22089,3.69457 -0.007,4.29717 -1.960578,5.19358 -1.30079,0.59675 -1.80088,1.2348 -1.43361,1.82907 0.12247,0.19816 0.66795,0.24243 1.6153,0.13108 1.579878,-0.18568 2.467268,0.12139 2.467268,0.85376 0,0.87794 -0.57159,1.10194 -2.811828,1.10194 -2.0161,0 -2.21589,-0.0496 -2.70559,-0.67219 z m 2.47843,-5.41733 c 0.67963,-0.75098 0.890358,-3.36282 0.28992,-3.59323 -0.23797,-0.0913 -0.60889,-0.0198 -0.82427,0.15897 -0.90111,0.74785 -1.13084,3.96753 -0.2831,3.96753 0.18417,0 0.55202,-0.23997 0.81745,-0.53327 z m 11.468568,5.96424 c -0.17743,-0.17744 -0.0052,-10.7048 0.180081,-11.00452 0.276373,-0.44719 1.155451,-0.25823 1.461809,0.31421 0.165278,0.30882 0.235445,0.88677 0.155933,1.28433 -0.1889,0.9445 0.233029,1.32918 1.457878,1.32918 1.390364,0 1.535924,0.42082 1.379365,3.98778 -0.176154,4.01342 -0.2257,4.2143 -1.039445,4.2143 -0.928507,0 -1.053399,-0.55378 -0.690671,-3.06253 0.33282,-2.30191 0.126413,-3.55205 -0.586467,-3.55205 -0.612336,0 -0.940033,1.44024 -0.775158,3.40687 0.199835,2.3836 -0.0072,3.20771 -0.80572,3.20771 -0.336775,0 -0.668697,-0.0564 -0.737605,-0.12528 z m -4.46069,-0.43655 c -1.64224,-0.65485 -2.60814,-2.17962 -2.68644,-4.24083 -0.0754,-1.98342 0.32967,-6.87817 0.61515,-7.43432 0.19952,-0.38866 0.61713,-0.46302 2.600322,-0.46302 2.754704,0 2.813907,0.0509 2.921891,2.51354 0.09875,2.25206 0.055,2.45679 -0.567274,2.65429 -0.761408,0.24166 -1.163992,-0.24643 -1.163992,-1.41121 0,-0.90271 -0.05926,-0.97849 -0.765196,-0.97849 -1.254931,0 -1.860211,1.09183 -1.972191,3.55751 -0.0555,1.22146 0.029,2.29617 0.2066,2.62798 0.50718,0.94766 1.598691,1.47994 3.042816,1.48382 1.240727,0.003 1.345915,0.054 1.419109,0.68286 0.05999,0.51546 -0.08656,0.75471 -0.607761,0.99219 -0.819087,0.3732 -2.129518,0.37995 -3.043034,0.0157 z m 10.469806,-8.32061 c -0.228677,-0.22867 -0.415774,-0.51783 -0.415774,-0.64256 0,-0.27755 0.75742,-1.05833 1.026663,-1.05833 0.107312,0 0.419616,0.16416 0.694007,0.3648 0.475562,0.34774 0.477642,0.39723 0.04447,1.05833 -0.525511,0.80203 -0.773954,0.85317 -1.349366,0.27776 z M -116.0016,265.9972 c -0.73544,-1.03284 -1.51583,-2.90118 -2.0127,-4.81867 -0.55773,-2.15235 -1.9777,-10.68906 -1.9777,-11.88974 0,-1.24715 0.69701,-1.91012 1.88745,-1.79528 1.37021,0.13218 1.54376,0.77045 1.54824,5.69412 0.005,5.56453 0.56886,8.54584 1.61611,8.54584 1.12324,0 1.56563,-3.85001 1.17152,-10.19557 -0.19145,-3.08268 -0.16601,-3.49685 0.23973,-3.90259 0.59088,-0.59088 1.5281,-0.57726 2.28193,0.0332 0.48495,0.39269 0.60567,0.76439 0.623,1.91822 0.0234,1.5568 -0.49587,7.46401 -0.91654,10.42699 -0.75181,5.29533 -2.89969,8.17624 -4.46104,5.98352 z m 35.193017,-1.24052 c -1.468279,-1.23548 -1.58522,-2.55286 -0.801238,-9.02621 0.408829,-3.3757 0.317881,-3.28088 2.958063,-3.08406 3.135299,0.23372 2.845178,-0.21636 2.845178,4.41387 0,4.54127 -0.377494,6.43016 -1.528802,7.64975 -0.923182,0.97793 -2.343756,0.99701 -3.473201,0.0466 z m 2.787224,-3.75082 c 0.525166,-1.79205 0.548788,-4.50062 0.04836,-5.54473 -0.91222,-1.90329 -2.160495,0.1665 -2.183919,3.62121 -0.01654,2.43872 0.327311,3.44488 1.177258,3.44488 0.395793,0 0.613971,-0.34637 0.958303,-1.52136 z m -31.097421,2.69267 c -1.21249,-1.02024 -1.44235,-2.27192 -1.18686,-6.46298 0.11975,-1.96453 0.1935,-3.75047 0.16388,-3.96875 -0.0296,-0.21828 0.006,-0.66476 0.0801,-0.99219 0.12787,-0.56836 0.25277,-0.59531 2.75911,-0.59531 1.44385,0 2.688,0.10165 2.76478,0.22588 0.0768,0.12423 0.17168,2.29712 0.21089,4.82864 0.0656,4.23203 0.0256,4.70218 -0.49597,5.83692 -0.312,0.67877 -0.80876,1.36338 -1.10393,1.52135 -0.95082,0.50886 -2.32016,0.34003 -3.19198,-0.39356 z m 2.59816,-3.07296 c 0.75465,-2.16479 0.53218,-6.07712 -0.38904,-6.84167 -0.8969,-0.74436 -1.75951,1.25237 -1.77692,4.11311 -0.0179,2.94138 1.44802,4.78806 2.16596,2.72856 z m 18.54431,2.20804 c -1.236192,-1.23619 -1.44417,-2.55358 -1.02997,-6.5241 0.197347,-1.89177 0.332512,-3.61818 0.300368,-3.83646 -0.03215,-0.21828 0.0019,-0.66476 0.07548,-0.99219 0.127127,-0.56507 0.257995,-0.5951 2.576285,-0.59126 1.343295,0.002 2.580458,0.0919 2.749251,0.19933 0.217369,0.1383 0.292158,1.58431 0.256381,4.95688 -0.04293,4.04646 -0.123613,4.9007 -0.537236,5.68766 -0.827146,1.57372 -1.198179,1.85208 -2.46865,1.85208 -0.932733,0 -1.322443,-0.15247 -1.921912,-0.75194 z m 2.800789,-3.21681 c 0.763638,-2.12456 0.216069,-7.12113 -0.747607,-6.82191 -0.183972,0.0571 -0.569216,0.57362 -0.856101,1.14778 -0.607415,1.21566 -0.721178,4.78133 -0.19217,6.02321 0.449321,1.05481 1.354516,0.87886 1.795878,-0.34908 z m -16.163349,3.18908 c -1.21449,-0.49708 -2.01028,-2.14827 -2.06838,-4.29166 -0.0779,-2.87293 0.34752,-7.99393 0.68165,-8.20613 0.37699,-0.23942 3.756748,-0.28347 4.589908,-0.0598 0.51294,0.13768 0.57359,0.40618 0.76121,3.36981 0.11213,1.77112 0.18855,3.80355 0.16982,4.5165 -0.096,3.65368 -1.83092,5.61402 -4.134208,4.6713 z m 1.865578,-3.57784 c 0.46409,-1.11072 0.48646,-4.64573 0.0377,-5.96162 -0.21879,-0.64158 -0.47725,-0.92604 -0.841398,-0.92604 -0.85586,0 -1.30708,1.31448 -1.31692,3.83646 -0.0134,3.42196 1.22263,5.20036 2.120598,3.0512 z m 4.50519,2.68216 c -0.87043,-0.87042 -1.01043,-2.18389 -0.74552,-6.99411 0.26205,-4.75831 0.37348,-4.98038 2.466894,-4.91654 l 1.325271,0.0404 -0.168304,-1.12234 c -0.226436,-1.50998 0.632767,-2.43886 1.655017,-1.78924 0.246348,0.15656 0.27705,1.95159 0.132291,7.73501 l -0.188502,7.53115 -1.918655,0.0777 c -1.731432,0.0702 -1.981092,0.0153 -2.558492,-0.56209 z m 2.521101,-2.4602 c 0.390631,-0.47068 0.686056,-5.40958 0.393343,-6.57585 -0.240885,-0.95976 -1.069505,-0.86335 -1.499378,0.17446 -0.484066,1.16863 -0.494506,5.81087 -0.01437,6.3925 0.454586,0.55069 0.669343,0.55239 1.120412,0.009 z"
       id="path1650"
       clip-path="url(#clipPath1876)"
       transform="matrix(1.1045782,0,0,0.90261976,143.88303,-216.76695)" /><text
       xml:space="preserve"
       style="font-size:33.5139px;line-height:1.25;font-family:sans-serif;stroke-width:0.264583"
       x="-210.35049"
       y="29.365776"
       id="text1768"
       transform="matrix(0,-0.99999935,1.0000006,0,0,0)"><tspan
         id="tspan1766"
         style="font-style:italic;font-variant:normal;font-weight:bold;font-stretch:normal;font-size:33.5139px;font-family:Arial;-inkscape-font-specification:'Arial Bold Italic';fill:#ffffff;stroke-width:0.264583"
         x="-210.35049"
         y="29.365776">LINEUP</tspan></text><text
       xml:space="preserve"
       style="font-size:10.5833px;line-height:1.25;font-family:sans-serif;stroke-width:0.264583"
       x="-210.36685"
       y="47.612724"
       id="text1768-8"
       transform="matrix(0,-0.99999938,1.0000006,0,0,0)"><tspan
         id="tspan1766-2"
         style="font-style:normal;font-variant:normal;font-weight:bold;font-stretch:normal;font-size:10.5833px;font-family:Arial;-inkscape-font-specification:'Arial Bold';fill:#ffffff;stroke-width:0.264583"
         x="-210.36685"
         y="47.612724">Puckfathers: 04-28, 12:40 AM</tspan></text><text
       xml:space="preserve"
       style="font-size:10.5833px;line-height:1.25;font-family:sans-serif;display:inline;stroke-width:0.264583"
       x="-210.36685"
       y="67.514175"
       id="text1768-8-15"
       transform="matrix(0,-0.9999994,1.0000006,0,0,0)"><tspan
         id="tspan1766-2-3"
         style="font-style:normal;font-variant:normal;font-weight:bold;font-stretch:normal;font-size:10.5833px;font-family:Arial;-inkscape-font-specification:'Arial Bold';fill:#ffffff;stroke-width:0.264583"
         x="-210.36685"
         y="67.514175">Baierl Ice Complex</tspan></text><rect
       style="fill:#ffffff;stroke:#ffffff;stroke-width:0.264999;stroke-linecap:round;paint-order:fill markers stroke"
       id="rect1880"
       width="124.3083"
       height="212.85583"
       x="74.548698"
       y="0.1324995" /><rect
       style="fill:#000000;stroke:none;stroke-width:0.264999;stroke-linecap:round;paint-order:fill markers stroke"
       id="rect1882"
       width="41.897442"
       height="8.1794872"
       x="79.548714"
       y="5.1324997" /><rect
       style="fill:#000000;stroke:none;stroke-width:0.264999;stroke-linecap:round;paint-order:fill markers stroke"
       id="rect1888"
       width="83.499092"
       height="1.235001"
       x="114.90697"
       y="8.604743" /><text
       xml:space="preserve"
       style="font-size:8.81944px;line-height:1.25;font-family:sans-serif;stroke-width:0.264583"
       x="80.537422"
       y="12.497244"
       id="text1886"><tspan
         id="tspan1884"
         style="font-style:normal;font-variant:normal;font-weight:bold;font-stretch:normal;font-size:8.81944px;font-family:Arial;-inkscape-font-specification:'Arial Bold';fill:#ffffff;stroke-width:0.264583"
         x="80.537422"
         y="12.497244">Forwards</tspan></text><rect
       style="fill:#000000;stroke:none;stroke-width:0.264999;stroke-linecap:round;paint-order:fill markers stroke"
       id="rect1888-2"
       width="66.015656"
       height="1.235001"
       x="132.39038"
       y="78.626083" /><rect
       style="fill:#000000;stroke:none;stroke-width:0.264999;stroke-linecap:round;paint-order:fill markers stroke"
       id="rect1882-5"
       width="54.467724"
       height="8.1794872"
       x="79.548706"
       y="75.153839" /><text
       xml:space="preserve"
       style="font-size:8.81944px;line-height:1.25;font-family:sans-serif;stroke-width:0.264583"
       x="80.537415"
       y="82.518631"
       id="text1886-9"><tspan
         id="tspan1884-1"
         style="font-style:normal;font-variant:normal;font-weight:bold;font-stretch:normal;font-size:8.81944px;font-family:Arial;-inkscape-font-specification:'Arial Bold';fill:#ffffff;stroke-width:0.264583"
         x="80.537415"
         y="82.518631">Defensemen</tspan></text><rect
       style="fill:#000000;stroke:none;stroke-width:0.264999;stroke-linecap:round;paint-order:fill markers stroke"
       id="rect1882-5-6"
       width="29.00526"
       height="8.1794872"
       x="79.548706"
       y="135.9655" /><rect
       style="fill:#000000;stroke:none;stroke-width:0.265;stroke-linecap:round;paint-order:fill markers stroke"
       id="rect1888-2-0"
       width="95.011436"
       height="1.235001"
       x="103.39461"
       y="139.43774" /><text
       xml:space="preserve"
       style="font-size:8.81944px;line-height:1.25;font-family:sans-serif;stroke-width:0.264583"
       x="80.537415"
       y="143.33032"
       id="text1886-9-7"><tspan
         id="tspan1884-1-8"
         style="font-style:normal;font-variant:normal;font-weight:bold;font-stretch:normal;font-size:8.81944px;font-family:Arial;-inkscape-font-specification:'Arial Bold';fill:#ffffff;stroke-width:0.264583"
         x="80.537415"
         y="143.33032">Goalie</tspan></text><rect
       style="fill:#000000;stroke:none;stroke-width:0.264999;stroke-linecap:round;paint-order:fill markers stroke"
       id="rect1882-5-6-1"
       width="44.033398"
       height="8.1794872"
       x="79.548706"
       y="170.6075" /><rect
       style="fill:#000000;stroke:none;stroke-width:0.264999;stroke-linecap:round;paint-order:fill markers stroke"
       id="rect1888-2-0-4"
       width="87.920815"
       height="1.235001"
       x="110.48523"
       y="174.07974" /><text
       xml:space="preserve"
       style="font-size:8.81944px;line-height:1.25;font-family:sans-serif;stroke-width:0.264583"
       x="80.537415"
       y="177.97235"
       id="text1886-9-7-7"><tspan
         id="tspan1884-1-8-6"
         style="font-style:normal;font-variant:normal;font-weight:bold;font-stretch:normal;font-size:8.81944px;font-family:Arial;-inkscape-font-specification:'Arial Bold';fill:#ffffff;stroke-width:0.264583"
         x="80.537415"
         y="177.97235">Scratches</tspan></text></g></svg>
